<svg width="90" height="84" viewBox="0 0 90 84" fill="none" xmlns="http://www.w3.org/2000/svg">
<path d="M1.75781 31.3387C5.17324 29.082 8.58691 26.8253 12.0023 24.5667V38.1106C8.58691 35.852 5.17324 33.5953 1.75781 31.3387Z" fill="#80B6FF"/>
<path d="M88.2422 31.3386C84.8268 33.5743 81.4131 35.808 77.9977 38.0436V24.6337C81.4131 26.8693 84.8268 29.103 88.2422 31.3386Z" fill="#80B6FF"/>
<path d="M12.0018 2.89532H77.9984V56.2217H12.0018V2.89532Z" fill="white"/>
<path d="M88.2422 31.3385V81.1041H1.75781V31.3385C16.1016 40.8208 30.4436 50.3011 44.7873 59.7815C59.2717 50.3011 73.7578 40.8208 88.2422 31.3385Z" fill="#FFCD69"/>
<path d="M1.75781 81.1047C16.1009 71.6236 30.4439 62.1426 44.7868 52.6615C59.272 62.1426 73.7571 71.6236 88.2422 81.1047C59.4141 81.1047 30.5859 81.1047 1.75781 81.1047Z" fill="#FFCD69"/>
<path d="M89.1466 29.7006L89.1478 29.6983L79.7553 23.5509V2.89569C79.7553 1.83875 78.9681 0.981628 77.9975 0.981628H12.0023C11.0317 0.981628 10.2445 1.83875 10.2445 2.89569V23.4897C7.11141 25.5613 3.97916 27.6319 0.845859 29.7023L0.847441 29.705C0.323613 30.0513 0 30.6684 0 31.3387V81.1043C0 82.1612 0.786973 83.0183 1.75781 83.0183H37.6172C38.588 83.0183 39.375 82.1612 39.375 81.1043C39.375 80.0473 38.588 79.1902 37.6172 79.1902H8.04129L44.7912 54.8977L81.9054 79.1902H52.3828C51.4122 79.1902 50.625 80.0473 50.625 81.1043C50.625 82.1612 51.4122 83.0183 52.3828 83.0183H88.2422C89.2129 83.0183 90 82.1612 90 81.1043V31.3387C90 30.6659 89.6741 30.0459 89.1466 29.7006ZM78.9026 39.6844C81.4303 38.0314 83.9572 36.3772 86.4844 34.7227V77.7206L53.6377 56.2217C62.0592 50.7101 70.482 45.1972 78.9026 39.6844ZM84.8305 31.3389C83.1389 32.4463 81.4472 33.5532 79.7555 34.6601V28.0172L84.8305 31.3389ZM11.0904 39.7469L36.0139 56.2215L3.51562 77.7036V34.7398L5.87268 36.2978C7.61186 37.4478 9.35086 38.5976 11.0904 39.7469ZM10.2445 34.7095C9.39551 34.1481 8.54631 33.5871 7.69746 33.0257L5.14512 31.3387C6.84492 30.2153 8.5449 29.0916 10.2445 27.9678V34.7095ZM43.8747 51.0254L39.4015 53.9822L13.7602 37.0334V4.80975H76.2398V36.961C67.5689 42.6376 58.8967 48.3137 50.2258 53.9883L45.6926 51.0212C45.1327 50.6548 44.4329 50.6565 43.8747 51.0254Z" fill="black"/>
<path d="M45 83.0183C45.9708 83.0183 46.7578 82.1614 46.7578 81.1042C46.7578 80.0471 45.9708 79.1902 45 79.1902C44.0292 79.1902 43.2422 80.0471 43.2422 81.1042C43.2422 82.1614 44.0292 83.0183 45 83.0183Z" fill="black"/>
<path d="M61.486 39.6455C61.486 38.5886 60.6989 37.7314 59.7282 37.7314H29.8454C28.8747 37.7314 28.0876 38.5886 28.0876 39.6455C28.0876 40.7025 28.8747 41.5596 29.8454 41.5596H59.7282C60.699 41.5596 61.486 40.7026 61.486 39.6455Z" fill="black"/>
<path d="M68.5173 27.8422C68.5173 26.7851 67.7301 25.9282 66.7595 25.9282H22.8141C21.8435 25.9282 21.0563 26.7851 21.0563 27.8422C21.0563 28.8992 21.8435 29.7563 22.8141 29.7563H66.7595C67.7303 29.7563 68.5173 28.8994 68.5173 27.8422Z" fill="black"/>
<path d="M29.8454 17.9529H59.7282C60.6989 17.9529 61.486 17.096 61.486 16.0388C61.486 14.9819 60.6989 14.1248 59.7282 14.1248H29.8454C28.8747 14.1248 28.0876 14.9819 28.0876 16.0388C28.0876 17.096 28.8747 17.9529 29.8454 17.9529Z" fill="black"/>
</svg>
