<svg width="117" height="117" viewBox="0 0 117 117" fill="none" xmlns="http://www.w3.org/2000/svg">
<path d="M42.5936 26.7707L30.8902 15.0673L1.73767 44.2196L14.3988 56.8809L37.1207 34.1588" fill="#80B6FF"/>
<path d="M49.7488 93.9454C47.721 95.9732 47.721 99.2604 49.7488 101.288C50.7627 102.302 52.092 102.808 53.4194 102.808C54.7487 102.808 56.078 102.302 57.0919 101.288L87.3335 71.0464L102.527 55.8529L73.4446 26.7708H42.3854C40.8484 26.7708 39.4551 27.3937 38.4467 28.4021C37.4383 29.4106 36.8153 30.8038 36.8153 32.3408C36.8153 35.4166 39.3093 37.9106 42.3851 37.9106H54.1971L27.7207 71.9163C25.693 73.944 25.693 77.2316 27.7207 79.2592C29.7483 81.2868 33.0359 81.2868 35.0635 79.2592C33.0359 81.2868 33.0359 84.5745 35.0635 86.6021C37.0911 88.6297 40.3788 88.6297 42.4064 86.6021C40.3788 88.6297 40.3788 91.9173 42.4064 93.9449C44.434 95.9725 47.7216 95.9725 49.7493 93.9449" fill="#FCD2BE"/>
<path d="M88.3939 79.4489C87.379 80.4637 86.0493 80.971 84.7194 80.971C83.3942 80.971 82.0665 80.4637 81.0519 79.4512C82.0645 80.4637 82.5695 81.7911 82.5695 83.1211C82.5695 84.4485 82.0645 85.7762 81.0496 86.791C79.0225 88.8182 75.7348 88.8182 73.7077 86.791C74.7225 87.8059 75.2275 89.1333 75.2275 90.4633C75.2275 91.7907 74.7225 93.1207 73.7077 94.1355C71.6805 96.1604 68.3929 96.1627 66.3657 94.1355C68.3929 96.1649 68.3929 99.4503 66.3635 101.477C65.3509 102.492 64.0212 102.997 62.6935 102.997C61.3636 102.997 60.0361 102.492 59.0213 101.477L14.348 56.8019L37.0875 34.0622C37.8103 36.2957 39.9095 37.9104 42.3861 37.9104H54.1973L88.3936 72.1067C90.421 74.1341 90.421 77.4217 88.3939 79.4489Z" fill="#DB976D"/>
<path d="M102.601 55.8162L115.261 43.1562L86.109 14.0042L73.449 26.6642L102.601 55.8162Z" fill="#FFCD69"/>
<path d="M16.8045 56.8028L34.731 38.8763C35.4097 38.1976 35.4097 37.0975 34.731 36.4191C34.0523 35.7404 32.9523 35.7404 32.2738 36.4191L14.334 54.3591L4.19484 44.2199L30.8902 17.5246L37.2525 23.8866C37.9312 24.5653 39.0312 24.5653 39.7097 23.8866C40.3884 23.208 40.3884 22.1079 39.7097 21.4294L32.1189 13.8389C31.4402 13.1602 30.3401 13.1602 29.6617 13.8389L0.508902 42.9912C0.18304 43.3168 0 43.7587 0 44.2197C0 44.6806 0.18304 45.1225 0.508902 45.4484L13.1702 58.1097C13.2283 58.1677 13.2904 58.2191 13.3542 58.2671L17.7606 62.6736C18.0997 63.0129 18.5447 63.1825 18.9893 63.1825C19.434 63.1825 19.8787 63.0129 20.2181 62.6736C20.8968 61.9949 20.8968 60.8951 20.2181 60.2164L16.8045 56.8028Z" fill="black"/>
<path d="M55.426 36.6818C55.1004 36.356 54.6559 36.1729 54.195 36.1729H42.386C40.7177 36.1729 39.2529 35.1097 38.738 33.519C38.6146 33.1435 38.5518 32.747 38.5518 32.341C38.5518 31.317 38.9508 30.3549 39.6761 29.6312C40.3998 28.9075 41.3623 28.509 42.386 28.509H56.5514C57.511 28.509 58.2891 27.7309 58.2891 26.7714C58.2891 25.8118 57.511 25.0338 56.5514 25.0338H42.386C40.4341 25.0338 38.5989 25.7936 37.2202 27.1724C35.8379 28.5517 35.0768 30.3872 35.0768 32.341C35.0768 33.117 35.1979 33.8789 35.4344 34.5975C36.4122 37.6187 39.206 39.6482 42.3863 39.6482H53.4779L87.1649 73.3356C88.5117 74.6825 88.5117 76.8737 87.1649 78.2201C86.5115 78.8734 85.6432 79.2336 84.7193 79.2336C83.8052 79.2336 82.944 78.8782 82.2909 78.2327C82.2868 78.2283 82.2829 78.2237 82.2785 78.2196L63.5417 59.483C62.8628 58.8043 61.7629 58.8043 61.0843 59.483C60.4056 60.1617 60.4056 61.2618 61.0843 61.9402L66.929 67.7847C66.9317 67.7875 66.9342 67.7907 66.937 67.7939L79.812 80.6686C79.8161 80.673 79.8202 80.6773 79.8247 80.6814C79.8259 80.6826 79.827 80.6835 79.828 80.6846C81.1675 82.0322 81.1657 84.2179 79.8213 85.5625C78.474 86.9094 76.2825 86.9094 74.9357 85.5625L56.1988 66.8257C55.5201 66.147 54.4201 66.147 53.7416 66.8257C53.0629 67.5044 53.0629 68.6044 53.7416 69.2829L59.5927 75.134C59.5934 75.1347 59.5939 75.1354 59.5946 75.1361L72.4782 88.0197C73.8253 89.3668 73.8253 91.5583 72.4782 92.9051C71.8258 93.5575 70.9581 93.9172 70.0356 93.9172C69.1136 93.9172 68.2468 93.5585 67.5946 92.907C67.5942 92.9065 67.5937 92.9061 67.5933 92.9056L48.8557 74.1681C48.1773 73.4894 47.0772 73.4894 46.3985 74.1681C45.7198 74.8468 45.7198 75.9468 46.3985 76.6253L52.2476 82.4744C52.249 82.476 52.2503 82.4776 52.2517 82.4789L65.1351 95.3624C65.1363 95.3635 65.1374 95.3644 65.1386 95.3656C65.7891 96.0177 66.1475 96.884 66.1475 97.8052C66.1475 98.7277 65.788 99.5954 65.1354 100.248C64.4836 100.9 63.6164 101.258 62.6937 101.258C61.7698 101.258 60.9021 100.9 60.2502 100.248L23.8667 63.8648C23.1883 63.1859 22.0882 63.1861 21.4095 63.8648C20.7308 64.5435 20.7308 65.6436 21.4095 66.322L26.1478 71.0605C25.0585 72.3185 24.4623 73.9069 24.4623 75.5878C24.4623 77.4388 25.183 79.1789 26.4919 80.4879C27.8006 81.7968 29.541 82.5175 31.392 82.5175C31.5352 82.5175 31.6776 82.5118 31.8195 82.5031C31.8108 82.6448 31.8051 82.7874 31.8051 82.9307C31.8051 84.7819 32.5259 86.522 33.8348 87.8307C35.1435 89.1394 36.8839 89.8604 38.7348 89.8604C38.8783 89.8604 39.0205 89.8547 39.1624 89.846C39.1537 89.9877 39.148 90.1303 39.148 90.2736C39.148 92.1245 39.8687 93.8647 41.1777 95.1736C42.4864 96.4825 44.2267 97.2033 46.0777 97.2033C46.221 97.2033 46.3629 97.1976 46.5048 97.1889C46.4961 97.3306 46.4904 97.4731 46.4904 97.6164C46.4904 99.4674 47.2111 101.208 48.5201 102.516C49.8283 103.825 51.568 104.545 53.4192 104.545C55.1029 104.545 56.6933 103.948 57.9515 102.857C59.2401 104.068 60.9147 104.734 62.6935 104.734C64.5446 104.734 66.2846 104.013 67.5926 102.705C68.9015 101.397 69.6225 99.6561 69.6225 97.8052C69.6225 97.6617 69.6168 97.5195 69.6081 97.3776C69.7498 97.3863 69.8921 97.392 70.0354 97.392C71.8864 97.392 73.6267 96.6711 74.9354 95.3624C76.3959 93.9019 77.0652 91.9465 76.9468 90.0309C77.0906 90.0398 77.2341 90.0457 77.378 90.0457C79.1525 90.0455 80.9273 89.3702 82.2783 88.0193C83.7374 86.5602 84.4069 84.6071 84.2902 82.6935C84.4325 82.7024 84.5753 82.7081 84.7191 82.7081C86.571 82.7081 88.3122 81.9869 89.6221 80.6769C92.3238 77.9751 92.3238 73.5792 89.6221 70.8777L55.426 36.6818ZM28.9491 78.0307C28.2967 77.3782 27.9373 76.5106 27.9373 75.5881C27.9373 74.8369 28.1788 74.1244 28.6196 73.5326L33.4475 78.3604C32.8558 78.8007 32.1433 79.0428 31.3922 79.0428C30.4692 79.0425 29.6018 78.6831 28.9491 78.0307ZM36.292 85.3735C35.6396 84.7211 35.2799 83.8534 35.2799 82.9307C35.2799 82.1796 35.5215 81.4671 35.9623 80.8754L40.7901 85.7033C40.1985 86.1436 39.486 86.3854 38.7348 86.3854C37.8123 86.3854 36.9446 86.0262 36.292 85.3735ZM43.6351 92.7166C42.9827 92.0642 42.6232 91.1965 42.6232 90.274C42.6232 89.5229 42.8648 88.8104 43.3054 88.2188L48.1332 93.0466C47.5416 93.4869 46.8291 93.7289 46.0779 93.7289C45.1552 93.7285 44.2877 93.3692 43.6351 92.7166ZM50.9777 100.059C50.3251 99.4068 49.9656 98.5394 49.9656 97.6169C49.9656 96.8658 50.2072 96.153 50.6482 95.5614L55.4758 100.389C54.8844 100.829 54.1715 101.071 53.4194 101.071C52.4967 101.07 51.6297 100.711 50.9777 100.059Z" fill="black"/>
<path d="M116.491 41.927L87.3381 12.7746C86.6592 12.096 85.5593 12.096 84.8806 12.7746L72.6217 25.0335H62.1119C61.1521 25.0335 60.3743 25.8116 60.3743 26.7712C60.3743 27.7307 61.1521 28.5088 62.1119 28.5088H72.7259L100.069 55.8522L89.5583 66.3652C88.8797 67.0439 88.8796 68.144 89.5586 68.8225C89.8979 69.1616 90.3426 69.3311 90.7873 69.3311C91.2322 69.3311 91.6767 69.1616 92.0162 68.8222L116.491 44.3844C116.817 44.0588 117 43.6166 117 43.1559C117 42.6952 116.816 42.2528 116.491 41.927ZM102.546 53.4142L75.8511 26.7191L86.1096 16.4606L112.805 43.1557L102.546 53.4142Z" fill="black"/>
</svg>
