<svg width="90" height="91" viewBox="0 0 90 91" fill="none" xmlns="http://www.w3.org/2000/svg">
<line x1="1" y1="89.5" x2="73" y2="89.5" stroke="black" stroke-width="3"/>
<line x1="76" y1="89.5" x2="86" y2="89.5" stroke="black" stroke-width="3"/>
<path d="M62.2774 20.0162L58.4901 16.2289L74.3886 0.330566L76.1989 0.351402L80.9434 5.09576L77.2184 8.82076L75.3457 6.94802L62.2774 20.0162Z" fill="#C8D1DA"/>
<path d="M61.2644 13.4546L74.3886 0.330566L58.4901 16.2289L62.2774 20.0162L65.0518 17.2419L61.2644 13.4546Z" fill="#92A2B5"/>
<path d="M75.3457 6.948L26.9233 55.7768L34.4148 63.2683L82.8372 14.4393L75.3457 6.948Z" fill="#E46A4A"/>
<path d="M34.2383 57.6181L29.7367 52.9398L26.9233 55.7768L34.4148 63.2685L82.8372 14.4393L80.0238 11.626L34.2383 57.6181Z" fill="#BE310C"/>
<path d="M87.4153 4.11797L85.5425 2.24505L83.7945 2.24487L77.2185 8.82083L80.9643 12.5667L87.5403 5.99071L87.4153 4.11797Z" fill="#9EB6F4"/>
<path d="M77.2094 8.82849L80.1664 5.87146L83.9116 9.61671L80.9546 12.5737L77.2094 8.82849Z" fill="#6E91EF"/>
<path d="M7.52185 75.1644L26.9126 55.7736L34.403 63.264L15.0122 82.6548L7.52185 75.1644Z" fill="#9EB6F4"/>
<path d="M15.0212 77.2473L10.2371 72.4632L7.52966 75.1706L15.0212 82.6621L34.4148 63.2685L31.7074 60.5609L15.0212 77.2473Z" fill="#6E91EF"/>
<path d="M7.52971 75.1707L2.65857 87.0334L3.07122 87.4461L15.0212 82.6622L7.52971 75.1707Z" fill="#C8D1DA"/>
<path d="M4.49388 82.564L2.65857 87.0334L3.07122 87.4461L15.0212 82.6621L11.9416 79.5825L4.49388 82.564Z" fill="#92A2B5"/>
<path d="M73.4803 14.4191L75.3529 12.5465L77.2255 14.4191L75.3529 16.2916L73.4803 14.4191Z" fill="white"/>
<path d="M69.7384 18.1697L71.611 16.2971L73.4837 18.1698L71.6111 20.0424L69.7384 18.1697Z" fill="white"/>
<path d="M65.996 21.9206L67.8685 20.048L69.7411 21.9206L67.8685 23.7932L65.996 21.9206Z" fill="white"/>
<path d="M49.254 32.6769L51.1266 30.8043L52.9993 32.677L51.1267 34.5496L49.254 32.6769Z" fill="black"/>
<path d="M88.9016 7.50191L88.7036 4.53318L86.091 1.92059H83.2457L80.9434 4.22294L76.7536 0.0331959L73.8462 0L56.6174 17.2288L60.5717 21.1832L52.9974 28.9404L54.8924 30.7908L75.3569 9.83198L80.967 15.4421L34.3541 62.3346L28.8238 56.8043L49.2615 36.4219L47.3912 34.5465L6.59454 75.2328L6.40579 75.4208L1.09851 88.346L2.7523 89.9998L15.7674 84.7895L84.7072 15.4366L82.8373 13.5667L88.9016 7.50191ZM32.4868 64.2132L15.0183 81.7863L9.40383 76.1718L26.9484 58.6747L32.4868 64.2132ZM7.99937 78.5132L12.665 83.1788L4.78908 86.3317L7.99937 78.5132ZM84.3428 4.5692H84.994L86.1271 5.70227L86.1788 6.47902L80.9642 11.6936L79.0915 9.82086L84.3428 4.5692ZM75.3345 6.0639L62.4222 19.288L60.363 17.2288L74.9309 2.66097L75.6442 2.66927L79.0706 6.09568L77.2186 7.94776L75.3345 6.0639Z" fill="black"/>
</svg>
