<svg width="42" height="42" viewBox="0 0 42 42" fill="none" xmlns="http://www.w3.org/2000/svg">
<path d="M5.04061 0.375854C2.33233 0.375854 0.129272 2.57906 0.129272 5.28719C0.129272 7.99531 2.33142 10.1984 5.04061 10.1984C7.74979 10.1984 9.95194 7.99531 9.95194 5.28719C9.95194 2.57906 7.74873 0.375854 5.04061 0.375854Z" fill="white"/>
<path d="M20.936 0.375854C18.2279 0.375854 16.0247 2.57906 16.0247 5.28719C16.0247 7.99531 18.2279 10.1984 20.936 10.1984C23.6443 10.1984 25.8478 7.99531 25.8478 5.28719C25.8478 2.57906 23.6452 0.375854 20.936 0.375854Z" fill="white"/>
<path d="M37.0887 10.1985C39.7964 10.1985 42 7.99546 42 5.28734C42 2.57922 39.7982 0.375854 37.0887 0.375854C34.3792 0.375854 32.1774 2.57906 32.1774 5.28719C32.1774 7.99531 34.3809 10.1985 37.0887 10.1985Z" fill="white"/>
<path d="M4.91225 25.9359C7.62037 25.9359 9.82403 23.7333 9.82403 21.0247C9.82403 18.316 7.62037 16.1129 4.91225 16.1129C2.20412 16.1129 0 18.3161 0 21.0247C0 23.7333 2.20412 25.9359 4.91225 25.9359Z" fill="white"/>
<path d="M20.8077 25.9359C23.5154 25.9359 25.719 23.7333 25.719 21.0247C25.719 18.316 23.5172 16.1129 20.8077 16.1129C18.0987 16.1129 15.8964 18.316 15.8964 21.0247C15.8964 23.7333 18.0996 25.9359 20.8077 25.9359Z" fill="white"/>
<path d="M36.9617 25.9359C39.6705 25.9359 41.8731 23.7333 41.8731 21.0247C41.8731 18.316 39.6705 16.1129 36.9617 16.1129C34.253 16.1129 32.0486 18.316 32.0486 21.0247C32.0486 23.7333 34.2523 25.9359 36.9617 25.9359Z" fill="white"/>
<path d="M5.02467 31.8016C2.31655 31.8016 0.112427 34.0042 0.112427 36.713C0.112427 39.4206 2.31655 41.6241 5.02467 41.6241C7.73279 41.6241 9.93585 39.4217 9.93585 36.713C9.93585 34.0042 7.73279 31.8016 5.02467 31.8016Z" fill="white"/>
<path d="M20.9209 31.8016C18.2126 31.8016 16.0087 34.0042 16.0087 36.713C16.0087 39.4206 18.2119 41.6241 20.9209 41.6241C23.6286 41.6241 25.8321 39.4217 25.8321 36.713C25.8321 34.0042 23.6286 31.8016 20.9209 31.8016Z" fill="white"/>
<path d="M37.0731 31.8016C34.3654 31.8016 32.1617 34.0042 32.1617 36.713C32.1617 39.4206 34.3654 41.6241 37.0731 41.6241C39.7818 41.6241 41.9844 39.4217 41.9844 36.713C41.9844 34.0042 39.7807 31.8016 37.0731 31.8016Z" fill="white"/>
</svg>
