<svg width="27" height="25" viewBox="0 0 27 25" fill="none" xmlns="http://www.w3.org/2000/svg">
<path d="M12.5 24C18.8513 24 24 18.8513 24 12.5C24 6.14874 18.8513 1.00001 12.5 1.00001C6.14873 1.00001 1 6.14874 1 12.5C1 18.8513 6.14873 24 12.5 24Z" fill="#FFEA30" stroke="#39393A" stroke-width="2"/>
<circle cx="21" cy="18" r="6" fill="#EBEBEB"/>
<path d="M21 12C17.692 12 15 14.692 15 18C15 21.308 17.692 24 21 24C24.308 24 27 21.308 27 18C27 14.692 24.308 12 21 12ZM23.472 20.472C23.3413 20.6013 23.1707 20.6667 23 20.6667C22.8293 20.6667 22.6587 20.6013 22.528 20.472L20.528 18.472C20.404 18.3467 20.3333 18.1773 20.3333 18V15.3333C20.3333 14.9653 20.632 14.6667 21 14.6667C21.368 14.6667 21.6667 14.9653 21.6667 15.3333V17.724L23.472 19.5293C23.732 19.7893 23.732 20.2107 23.472 20.472Z" fill="#39393A"/>
<path d="M14.1719 15.7089C14.1302 15.6616 14.0965 15.6076 14.0515 15.5626L12.625 14.1373L11.1985 15.5638C10.6675 16.0936 10.375 16.799 10.375 17.5516V18.5011H13.7781C13.7613 18.3155 13.75 18.1276 13.75 17.9375C13.75 17.1511 13.903 16.4019 14.1719 15.7089Z" fill="white"/>
<path d="M10.375 7.25V8.19837C10.375 8.94875 10.6675 9.65525 11.1985 10.1874L12.625 11.6139L14.0515 10.1874C14.5825 9.65638 14.875 8.94987 14.875 8.19837V7.25H10.375Z" fill="white"/>
<path d="M17.6875 5H7.5625C7.252 5 7 5.25312 7 5.5625C7 5.87413 7.252 6.125 7.5625 6.125H8.125V8.19837C8.125 9.55062 8.6515 10.8219 9.60775 11.7781L10.7046 12.875L9.60775 13.9719C8.6515 14.9292 8.125 16.1994 8.125 17.5516V19.625H7.5625C7.252 19.625 7 19.877 7 20.1875C7 20.498 7.252 20.75 7.5625 20.75L14.4329 20.7489C14.2495 20.3922 14.101 20.0165 13.9896 19.6239L9.25 19.625V17.5516C9.25 16.4997 9.6595 15.512 10.4031 14.7673L11.8983 13.2733C12.0029 13.1675 12.0625 13.0246 12.0625 12.875C12.0625 12.7265 12.0029 12.5825 11.8983 12.4767L10.4031 10.9827C9.6595 10.2391 9.25 9.25025 9.25 8.19837V6.125H16V8.19837C16 9.25025 15.5905 10.238 14.8469 10.9827L13.3517 12.4779C13.2471 12.5836 13.1875 12.7265 13.1875 12.875C13.1875 13.0246 13.2471 13.1675 13.3517 13.2733L14.7141 14.6345C14.9177 14.3139 15.1495 14.0146 15.4071 13.7367L14.5454 12.875L15.6423 11.777C16.5985 10.8219 17.125 9.55062 17.125 8.19837V6.125H17.6875C17.998 6.125 18.25 5.873 18.25 5.5625C18.25 5.252 17.998 5 17.6875 5Z" fill="#39393A"/>
</svg>
