<svg width="21" height="21" viewBox="0 0 21 21" fill="none" xmlns="http://www.w3.org/2000/svg">
<path d="M20 10.5C20 15.7467 15.7467 20 10.5 20C5.25329 20 1 15.7467 1 10.5C1 5.25331 5.25329 1.00001 10.5 1.00001C15.7467 1.00001 20 5.25331 20 10.5Z" fill="white" stroke="#373637" stroke-width="2"/>
<path d="M9.10938 12.7921C9.10938 12.0317 9.19531 11.4327 9.36719 10.9952C9.53906 10.5525 9.81771 10.1697 10.2031 9.8468C10.5885 9.52389 10.8802 9.22961 11.0781 8.96399C11.2812 8.69316 11.3828 8.39628 11.3828 8.07336C11.3828 7.28691 11.0443 6.89368 10.3672 6.89368C10.0547 6.89368 9.80208 7.00826 9.60938 7.23743C9.41667 7.46659 9.3151 7.77649 9.30469 8.16711H6.66406C6.67448 7.12545 7.0026 6.31555 7.64844 5.73743C8.29427 5.15409 9.20052 4.86243 10.3672 4.86243C11.5286 4.86243 12.4271 5.13066 13.0625 5.66711C13.7031 6.20357 14.0234 6.96659 14.0234 7.95618C14.0234 8.38847 13.9375 8.7817 13.7656 9.13586C13.5938 9.49003 13.3177 9.85201 12.9375 10.2218L12.0391 11.0577C11.7839 11.3025 11.6068 11.5551 11.5078 11.8156C11.4089 12.0708 11.3542 12.3963 11.3438 12.7921H9.10938ZM8.78906 15.1671C8.78906 14.7817 8.92708 14.4666 9.20312 14.2218C9.48438 13.9718 9.83333 13.8468 10.25 13.8468C10.6667 13.8468 11.013 13.9718 11.2891 14.2218C11.5703 14.4666 11.7109 14.7817 11.7109 15.1671C11.7109 15.5525 11.5703 15.8702 11.2891 16.1202C11.013 16.365 10.6667 16.4874 10.25 16.4874C9.83333 16.4874 9.48438 16.365 9.20312 16.1202C8.92708 15.8702 8.78906 15.5525 8.78906 15.1671Z" fill="#151516" fill-opacity="0.83"/>
</svg>
