<svg width="17" height="18" viewBox="0 0 17 18" fill="none" xmlns="http://www.w3.org/2000/svg">
<g clip-path="url(#clip0)">
<path d="M9.15022 12.1431L6.54914 14.8309C6.54914 14.8309 6.54914 14.831 6.54908 14.831C6.54908 14.831 6.54908 14.831 6.54902 14.831C5.4734 15.9426 3.72312 15.9426 2.64737 14.831C2.12623 14.2925 1.8393 13.5766 1.8393 12.8151C1.8393 12.0537 2.12623 11.3379 2.64719 10.7994C2.64725 10.7993 2.64731 10.7993 2.64737 10.7992L5.24845 8.11136C5.60754 7.74023 5.60754 7.1385 5.24839 6.76743C4.8893 6.39637 4.30697 6.39637 3.94782 6.76743L1.34674 9.45528C1.34655 9.45547 1.34637 9.45572 1.34619 9.45591C0.478096 10.3533 0 11.5463 0 12.8151C0 14.0843 0.47828 15.2775 1.3468 16.175C2.24327 17.1013 3.42074 17.5644 4.59826 17.5644C5.77578 17.5644 6.9533 17.1013 7.84965 16.175V16.1749C7.84971 16.1749 7.84972 16.1748 7.84972 16.1748L10.4508 13.487C10.8099 13.1159 10.8099 12.5142 10.4507 12.1431C10.0917 11.772 9.50944 11.772 9.15022 12.1431Z" fill="#898989"/>
<path d="M16.9999 4.75146C16.9999 3.48229 16.5215 2.28909 15.653 1.39162C13.8601 -0.460974 10.9429 -0.460911 9.15017 1.39162C9.15011 1.39174 9.14999 1.39181 9.14993 1.39193L6.54891 4.07959C6.18975 4.45065 6.18975 5.05245 6.54891 5.42351C6.72855 5.60914 6.96385 5.70189 7.19922 5.70189C7.43453 5.70189 7.66996 5.60908 7.84948 5.42351L10.4505 2.73586C10.4506 2.73573 10.4507 2.73567 10.4508 2.73554C11.5264 1.62406 13.2767 1.624 14.3525 2.73554C14.8735 3.27405 15.1606 3.99001 15.1606 4.75146C15.1606 5.51284 14.8737 6.22868 14.3526 6.76718C14.3526 6.76725 14.3525 6.76731 14.3525 6.76737L11.7514 9.45522C11.3923 9.82628 11.3923 10.428 11.7514 10.7991C11.931 10.9847 12.1664 11.0775 12.4017 11.0775C12.6371 11.0775 12.8724 10.9847 13.052 10.7991L15.6531 8.1113C15.6533 8.11111 15.6535 8.11085 15.6536 8.11066C16.5217 7.21332 16.9999 6.02031 16.9999 4.75146Z" fill="#898989"/>
<path d="M5.24861 12.1431C5.42819 12.3286 5.66356 12.4214 5.89887 12.4214C6.13424 12.4214 6.36961 12.3286 6.54918 12.1431L11.7515 6.76736C12.1106 6.3963 12.1106 5.79457 11.7515 5.42344C11.3924 5.05238 10.81 5.05238 10.4509 5.42344L5.24861 10.7991C4.88946 11.1703 4.88946 11.772 5.24861 12.1431Z" fill="#898989"/>
</g>
<defs>
<clipPath id="clip0">
<rect width="17" height="17.5667" fill="white"/>
</clipPath>
</defs>
</svg>
