<svg width="98" height="98" viewBox="0 0 98 98" fill="none" xmlns="http://www.w3.org/2000/svg">
<g clip-path="url(#clip0_1246_77)">
<path d="M77.6934 7.50452H57.1664V11.6982C57.1689 12.1086 57.0068 12.5035 56.7163 12.7932C56.4266 13.0837 56.0317 13.2458 55.6213 13.2433H42.3781C41.9677 13.2458 41.5728 13.0837 41.2831 12.7932C40.9925 12.5035 40.8304 12.1086 40.833 11.6982V7.50452H20.306C16.2847 7.50883 13.0265 10.767 13.0222 14.7883V90.7162C13.0265 94.7375 16.2847 97.9957 20.306 98H77.6934C81.7146 97.9957 84.9728 94.7375 84.9772 90.7162V14.7883C84.9728 10.767 81.7146 7.50883 77.6934 7.50452ZM48.9997 22.955C54.9359 22.955 59.7486 27.7677 59.7486 33.7039C59.7486 39.6409 54.9359 44.4528 48.9997 44.4528C43.0635 44.4528 38.2508 39.6409 38.2508 33.7039C38.2577 27.7703 43.0661 22.9619 48.9997 22.955ZM37.0584 54.9595C40.2122 51.7676 44.5128 49.9708 48.9997 49.9708C53.4865 49.9708 57.7871 51.7676 60.941 54.9595C64.1191 58.2039 65.8624 62.6407 65.8624 67.4526C65.865 67.863 65.7038 68.257 65.4132 68.5476C65.1226 68.8381 64.7286 69.0002 64.3174 68.9977H33.682C33.2708 69.0002 32.8767 68.8381 32.5862 68.5476C32.2956 68.257 32.1344 67.863 32.137 67.4526C32.137 62.6407 33.8803 58.2039 37.0584 54.9595ZM63.3905 77.9144C63.3931 78.3248 63.231 78.7197 62.9413 79.0094C62.6507 79.3 62.2559 79.4621 61.8455 79.4595H36.1539C35.3003 79.4595 34.6089 78.768 34.6089 77.9144C34.6089 77.0609 35.3003 76.3694 36.1539 76.3694H61.8679C62.2748 76.3711 62.6645 76.5358 62.9499 76.8255C63.2362 77.1152 63.3948 77.5075 63.3905 77.9144ZM72.8815 89.1712H25.1179C24.2643 89.1712 23.5728 88.4797 23.5728 87.6261C23.5728 86.7726 24.2643 86.0811 25.1179 86.0811H72.9039C73.3143 86.0785 73.7083 86.2406 73.9989 86.5312C74.2894 86.8208 74.4515 87.2157 74.449 87.6261C74.4464 88.0391 74.28 88.434 73.986 88.7237C73.692 89.0134 73.2945 89.1746 72.8815 89.1712Z" fill="white"/>
<path d="M43.9233 0H54.0765V10.1532H43.9233V0Z" fill="white"/>
</g>
<defs>
<clipPath id="clip0_1246_77">
<rect width="98" height="98" fill="white"/>
</clipPath>
</defs>
</svg>
