<svg width="90" height="90" viewBox="0 0 90 90" fill="none" xmlns="http://www.w3.org/2000/svg">
<path d="M17.2266 88.2422H9.49219C5.22053 88.2422 1.75781 84.7795 1.75781 80.5078V22.5H9.49219V11.25H17.2266V88.2422Z" fill="#C3D3DD"/>
<path d="M80.5078 88.2422C84.7795 88.2422 88.2422 84.7795 88.2422 80.5078V1.75781H17.2266V80.5078C17.2266 84.7795 13.7637 88.2422 9.49219 88.2422H80.5078Z" fill="white"/>
<path d="M25.6641 34.4531H52.7344V68.2031H25.6641V34.4531Z" fill="#80B6FF"/>
<path d="M25.6641 13.3594H79.8047V26.0156H25.6641V13.3594Z" fill="#FFCD69"/>
<path d="M88.2422 0H17.2266C16.2559 0 15.4688 0.786973 15.4688 1.75781V9.49219H9.49219C8.52152 9.49219 7.73438 10.2793 7.73438 11.25V20.7422H1.75781C0.786973 20.7422 0 21.5293 0 22.5V80.5078C0 85.7417 4.2583 90 9.49219 90H80.5078C85.7417 90 90 85.7417 90 80.5078V1.75781C90 0.786973 89.2129 0 88.2422 0ZM86.4844 80.5078C86.4844 83.8034 83.8034 86.4844 80.5078 86.4844H16.8595C18.1867 84.8514 18.9844 82.7713 18.9844 80.5078V56.7779C18.9844 55.8072 18.1972 55.0201 17.2266 55.0201C16.2559 55.0201 15.4688 55.8072 15.4688 56.7779V80.5078C15.4688 83.8034 12.7877 86.4844 9.49219 86.4844C6.19664 86.4844 3.51562 83.8034 3.51562 80.5078V24.2578H7.73438V78.75C7.73438 79.7207 8.52152 80.5078 9.49219 80.5078C10.4629 80.5078 11.25 79.7207 11.25 78.75V13.0078H15.4688V40.9576C15.4688 41.9284 16.2559 42.7154 17.2266 42.7154C18.1972 42.7154 18.9844 41.9284 18.9844 40.9576V3.51562H86.4844V80.5078Z" fill="black"/>
<path d="M25.6641 27.7734H79.8047C80.7754 27.7734 81.5625 26.9865 81.5625 26.0156V13.3594C81.5625 12.3887 80.7754 11.6016 79.8047 11.6016H25.6641C24.6932 11.6016 23.9062 12.3887 23.9062 13.3594V26.0156C23.9062 26.9865 24.6932 27.7734 25.6641 27.7734ZM27.4219 15.1172H78.0469V24.2578H27.4219V15.1172Z" fill="black"/>
<path d="M25.6641 69.9609H52.7344C53.705 69.9609 54.4922 69.1738 54.4922 68.2031V34.4531C54.4922 33.4823 53.705 32.6953 52.7344 32.6953H25.6641C24.6932 32.6953 23.9062 33.4823 23.9062 34.4531V68.2031C23.9062 69.1738 24.6932 69.9609 25.6641 69.9609ZM27.4219 36.2109H50.9766V66.4453H27.4219V36.2109Z" fill="black"/>
<path d="M79.8047 32.6953H61.1719C60.2012 32.6953 59.4141 33.4823 59.4141 34.4531C59.4141 35.424 60.2012 36.2109 61.1719 36.2109H79.8047C80.7754 36.2109 81.5625 35.424 81.5625 34.4531C81.5625 33.4823 80.7754 32.6953 79.8047 32.6953Z" fill="black"/>
<path d="M79.8047 41.1328H61.1719C60.2012 41.1328 59.4141 41.9198 59.4141 42.8906C59.4141 43.8615 60.2012 44.6484 61.1719 44.6484H79.8047C80.7754 44.6484 81.5625 43.8615 81.5625 42.8906C81.5625 41.9198 80.7754 41.1328 79.8047 41.1328Z" fill="black"/>
<path d="M79.8047 49.5703H61.1719C60.2012 49.5703 59.4141 50.3575 59.4141 51.3281C59.4141 52.2988 60.2012 53.0859 61.1719 53.0859H79.8047C80.7754 53.0859 81.5625 52.2988 81.5625 51.3281C81.5625 50.3575 80.7754 49.5703 79.8047 49.5703Z" fill="black"/>
<path d="M79.8047 58.0078H61.1719C60.2012 58.0078 59.4141 58.795 59.4141 59.7656C59.4141 60.7363 60.2012 61.5234 61.1719 61.5234H79.8047C80.7754 61.5234 81.5625 60.7363 81.5625 59.7656C81.5625 58.795 80.7754 58.0078 79.8047 58.0078Z" fill="black"/>
<path d="M79.8047 66.4453H61.1719C60.2012 66.4453 59.4141 67.2325 59.4141 68.2031C59.4141 69.1738 60.2012 69.9609 61.1719 69.9609H79.8047C80.7754 69.9609 81.5625 69.1738 81.5625 68.2031C81.5625 67.2325 80.7754 66.4453 79.8047 66.4453Z" fill="black"/>
<path d="M25.6641 78.3984H79.8047C80.7754 78.3984 81.5625 77.6113 81.5625 76.6406C81.5625 75.67 80.7754 74.8828 79.8047 74.8828H25.6641C24.6932 74.8828 23.9062 75.67 23.9062 76.6406C23.9062 77.6113 24.6932 78.3984 25.6641 78.3984Z" fill="black"/>
<path d="M17.3145 47.1094C16.8521 47.1094 16.3986 47.2973 16.0717 47.6244C15.7447 47.9514 15.5566 48.4049 15.5566 48.8672C15.5566 49.3312 15.7446 49.783 16.0717 50.1098C16.3986 50.4385 16.8521 50.625 17.3145 50.625C17.7768 50.625 18.2303 50.4387 18.5571 50.1098C18.884 49.783 19.0723 49.3295 19.0723 48.8672C19.0723 48.4049 18.8842 47.9514 18.5571 47.6244C18.2303 47.2973 17.7768 47.1094 17.3145 47.1094Z" fill="black"/>
</svg>
