<svg width="20" height="20" viewBox="0 0 20 20" fill="none" xmlns="http://www.w3.org/2000/svg">
<path d="M11.3888 18.474L11.3888 15.1367C11.3888 14.6841 11.7557 14.3173 12.2083 14.3173C13.8232 14.3173 14.7016 12.661 14.8234 9.392L12.2083 9.392C11.7557 9.392 11.3888 9.02492 11.3888 8.57247L11.3888 1.52579C11.3888 1.0734 11.7557 0.706609 12.2083 0.706608L19.1806 0.706608C19.6334 0.706608 20 1.07369 20 1.52579L20 8.57247C20 10.1396 19.8422 11.5776 19.5312 12.8472C19.2122 14.149 18.7225 15.2872 18.0761 16.2303C17.4111 17.1995 16.5792 17.9601 15.6033 18.49C14.6209 19.023 13.4785 19.2934 12.208 19.2934C11.7557 19.2934 11.3888 18.9267 11.3888 18.474ZM0.819587 14.3173C0.367195 14.3173 -4.02936e-07 14.6843 -3.63397e-07 15.1366L-7.16356e-08 18.474C-3.20662e-08 18.9266 0.367138 19.2933 0.819588 19.2933C2.0895 19.2933 3.23211 19.0229 4.21419 18.4899C5.19019 17.9601 6.02255 17.1995 6.68773 16.2302C7.33383 15.2871 7.82352 14.1489 8.14259 12.8468C8.45347 11.5768 8.61126 10.1388 8.61126 8.57241L8.61126 1.52574C8.61126 1.07335 8.24423 0.70655 7.79172 0.70655L0.819643 0.70655C0.367253 0.70655 0.00039895 1.07363 0.00039899 1.52574L0.000399606 8.57247C0.000399646 9.02486 0.367196 9.392 0.819644 9.392L3.39741 9.392C3.27749 12.661 2.4119 14.3173 0.819587 14.3173Z" fill="black"/>
</svg>
