<svg width="20" height="20" viewBox="0 0 20 20" fill="none" xmlns="http://www.w3.org/2000/svg">
<path d="M8.6112 1.52596V4.86333C8.6112 5.31595 8.24429 5.68268 7.79167 5.68268C6.17678 5.68268 5.29836 7.33899 5.17661 10.608H7.79167C8.24429 10.608 8.6112 10.9751 8.6112 11.4275V18.4742C8.6112 18.9266 8.24429 19.2934 7.79167 19.2934H0.819358C0.366566 19.2934 0 18.9263 0 18.4742V11.4275C0 9.86043 0.157787 8.42236 0.468835 7.15278C0.787847 5.85101 1.27754 4.71281 1.92387 3.7697C2.58893 2.80046 3.42084 2.03989 4.39667 1.51003C5.37908 0.976973 6.52152 0.706604 7.79195 0.706604C8.24429 0.706604 8.6112 1.07334 8.6112 1.52596ZM19.1804 5.68274C19.6328 5.68274 20 5.31566 20 4.86338V1.52602C20 1.0734 19.6329 0.706661 19.1804 0.706661C17.9105 0.706661 16.7679 0.977088 15.7858 1.51009C14.8098 2.03994 13.9774 2.80052 13.3123 3.76976C12.6662 4.71287 12.1765 5.85113 11.8574 7.15319C11.5465 8.42316 11.3887 9.86123 11.3887 11.4276V18.4743C11.3887 18.9267 11.7558 19.2935 12.2083 19.2935H19.1804C19.6327 19.2935 19.9996 18.9264 19.9996 18.4743V11.4275C19.9996 10.9751 19.6328 10.608 19.1804 10.608H16.6026C16.7225 7.33905 17.5881 5.68274 19.1804 5.68274Z" fill="black"/>
</svg>
