<svg width="100" height="100" viewBox="0 0 100 100" fill="none" xmlns="http://www.w3.org/2000/svg">
<g clip-path="url(#clip0)">
<path d="M95.795 16.4258V89.5202H76.9997L76.9063 89.4948L94.7406 28.0669L54.6506 16.4258H95.795Z" fill="#FFCD69"/>
<path d="M50.5518 16.2372L54.6506 17.4258L94.7405 29.0668L76.9063 90.4947L74.3611 99.262L4.16589 78.8826L24.5454 8.68738L42.4628 13.8882L50.5518 16.2372Z" fill="white"/>
<path d="M46.8791 0H46.1439C43.1598 0 40.635 2.40173 40.635 5.38585V10.5756L24.9809 6.01748C24.5419 5.88929 24.0691 5.94192 23.6684 6.16435C23.2685 6.38763 22.9739 6.76118 22.8517 7.20264L2.48407 77.397C2.21834 78.3215 2.7515 79.2851 3.67517 79.5517L73.8729 99.9311C74.3169 100.059 74.794 100.007 75.199 99.7851C75.6022 99.5669 75.9019 99.1968 76.031 98.757L78.2043 91.2801H95.7949C96.7679 91.2733 97.5583 90.4931 97.5769 89.5202V16.4258C97.5769 15.4656 96.7551 14.7788 95.7949 14.7788H54.8985L52.3711 13.9316V5.38585C52.3711 2.40173 49.8632 0 46.8791 0ZM44.1123 5.38585C44.1123 4.3187 45.0776 3.47737 46.1439 3.47737H46.8791C47.9454 3.47737 48.8937 4.3187 48.8937 5.38585V12.9213L44.1123 11.585V5.38585ZM79.2138 87.8036L94.0996 36.661V87.8036H79.2138ZM94.0996 26.0582L66.874 18.2562H94.0996V26.0582ZM54.2057 18.0957L92.6062 29.252L75.2465 89.01L73.1818 96.1074L6.3231 76.6974L25.7721 9.84123L48.8937 16.5421V28.4056C48.8734 29.4812 47.9947 30.3421 46.919 30.3404C45.8502 30.3404 44.9834 29.4745 44.9817 28.4056V21.1817C44.9817 20.2216 44.2032 19.4431 43.243 19.4431C42.2828 19.4431 41.5043 20.2216 41.5043 21.1817V28.4056C41.4933 29.8395 42.0578 31.2182 43.0707 32.2327C44.6277 33.7804 46.9615 34.2431 48.9914 33.4077C51.0221 32.5723 52.3541 30.601 52.3711 28.4056V17.5516L54.2057 18.0957Z" fill="#151516"/>
<path d="M26.1361 41.6614L76.8411 55.2477C77.7501 55.4913 78.6952 54.913 78.9516 53.9563C79.2079 52.9996 78.6786 52.0262 77.7695 51.7826L27.0646 38.1962C26.1554 37.9526 25.2104 38.531 24.9541 39.4877C24.6977 40.4444 25.2269 41.4178 26.1361 41.6614Z" fill="black"/>
<path d="M23.0748 50.845L73.7798 64.4314C74.6889 64.675 75.6339 64.0966 75.8903 63.1399C76.1466 62.1832 75.6173 61.2098 74.7083 60.9662L24.0033 47.3799C23.0941 47.1363 22.1492 47.7146 21.8928 48.6713C21.6365 49.6281 22.1656 50.6014 23.0748 50.845Z" fill="black"/>
<path d="M20.0136 60.0287L70.7185 73.615C71.6276 73.8586 72.5727 73.2803 72.829 72.3236C73.0854 71.3669 72.556 70.3935 71.647 70.1499L20.942 56.5636C20.0328 56.3199 19.0879 56.8983 18.8315 57.855C18.5752 58.8117 19.1043 59.7851 20.0136 60.0287Z" fill="black"/>
<path d="M16.4506 69.0779L51.6987 78.5227C52.3307 78.692 53.051 78.0535 53.3074 77.0967C53.5637 76.14 53.2592 75.2268 52.6272 75.0575L17.379 65.6128C16.747 65.4434 16.0267 66.082 15.7704 67.0387C15.514 67.9954 15.8185 68.9086 16.4506 69.0779Z" fill="black"/>
</g>
<defs>
<clipPath id="clip0">
<rect width="100" height="100" fill="white"/>
</clipPath>
</defs>
</svg>
