<svg xmlns="http://www.w3.org/2000/svg" xmlns:xlink="http://www.w3.org/1999/xlink" viewBox="0 0 551.97 631.51"><defs><style>.cls-1{opacity:0.3;fill:url(#radial-gradient);}.cls-2{fill:#b7b7b7;}.cls-3{fill:#a5a4ac;}.cls-4{fill:#80808a;}.cls-5{fill:#aeaeae;}.cls-10,.cls-12,.cls-6,.cls-7,.cls-8,.cls-9{fill:#fafafa;}.cls-6{opacity:0.35;}.cls-7{opacity:0.5;}.cls-8{opacity:0.4;}.cls-9{opacity:0.2;}.cls-11{fill:#e5e4e3;}.cls-12{opacity:0.18;}.cls-13{fill:#cecece;}.cls-14{fill:#bcbcbc;}.cls-15{fill:red;}.cls-16{fill:#d30005;}.cls-17{fill:#9a0003;}</style><radialGradient id="radial-gradient" cx="1402.22" cy="-3228.88" r="273.79" gradientTransform="translate(-440 1183.82) scale(1 0.11)" gradientUnits="userSpaceOnUse"><stop offset="0.06"/><stop offset="0.16" stop-color="#333"/><stop offset="0.19" stop-color="#4f2c2c" stop-opacity="0.88"/><stop offset="0.33" stop-color="#9d1818" stop-opacity="0.54"/><stop offset="0.48" stop-color="#d50b0b" stop-opacity="0.29"/><stop offset="0.67" stop-color="#f50202" stop-opacity="0.15"/><stop offset="1" stop-color="red" stop-opacity="0.11"/></radialGradient></defs><title>urne</title><g id="Layer_1" data-name="Layer 1"><path class="cls-1" d="M1236,825.09c0,16.8-122.58,30.42-273.81,30.42s-273.74-13.62-273.74-30.42S811,794.67,962.19,794.67,1236,808.3,1236,825.09Z" transform="translate(-684.03 -224)"/></g><g id="Layer_2" data-name="Layer 2"><rect class="cls-2" x="141.96" y="231.64" width="233.06" height="157.17"/><rect class="cls-3" x="258.49" y="231.64" width="116.53" height="157.17"/><polygon class="cls-4" points="258.49 231.64 141.96 231.64 141.96 241.35 258.49 241.35 375.01 241.35 375.01 231.64 258.49 231.64"/><rect class="cls-5" x="935.19" y="540.82" width="14.6" height="337.26" transform="translate(967.9 -457.04) rotate(90)"/><rect class="cls-6" x="89.82" y="229.04" width="337.33" height="256.41"/><rect class="cls-5" x="82.21" y="218.28" width="15.22" height="267.17"/><polygon class="cls-5" points="40.33 564.89 27.91 556.46 85.82 477.97 98.24 486.4 40.33 564.89"/><rect class="cls-5" x="1103.51" y="442.28" width="15.22" height="267.17" transform="translate(1538.2 927.73) rotate(180)"/><polygon class="cls-5" points="476.58 564.89 489 556.46 431.08 477.97 418.67 486.4 476.58 564.89"/><polygon class="cls-7" points="427.15 485.45 89.82 485.45 31.78 563.54 485.19 563.54 427.15 485.45"/><polygon class="cls-8" points="31.78 563.54 31.78 218.28 89.82 218.28 89.82 485.45 31.78 563.54"/><polygon class="cls-8" points="485.19 563.54 485.19 218.28 427.15 218.28 427.15 485.45 485.19 563.54"/><rect class="cls-9" x="24.17" y="232" width="468.63" height="338.85"/><rect class="cls-10" x="24.17" y="218.28" width="15.22" height="345.26"/><rect class="cls-11" x="24.17" y="424.54" width="15.22" height="139"/><rect class="cls-10" x="1161.62" y="442.28" width="15.22" height="345.26" transform="translate(1654.42 1005.82) rotate(180)"/><rect class="cls-11" x="1161.62" y="648.54" width="15.22" height="139" transform="translate(1654.42 1212.09) rotate(180)"/><rect class="cls-11" x="935.25" y="544.75" width="14.6" height="468.63" transform="translate(1037.58 -387.48) rotate(90)"/><polygon class="cls-12" points="492.8 465.98 492.8 333.01 244.94 570.84 383.51 570.84 492.8 465.98"/><polygon class="cls-12" points="63.52 570.84 177.11 570.84 492.8 267.93 492.8 232 416.66 232 63.52 570.84"/><rect class="cls-13" x="24.17" y="231.64" width="15.22" height="28.47"/><rect class="cls-13" x="1161.62" y="455.64" width="15.22" height="28.47" transform="translate(1654.42 715.76) rotate(180)"/><rect class="cls-14" x="24.17" y="231.64" width="15.22" height="9.71"/><rect class="cls-14" x="1161.62" y="455.64" width="15.22" height="9.71" transform="translate(1654.42 696.99) rotate(180)"/><rect class="cls-15" y="155.96" width="516.97" height="75.68"/><path class="cls-16" d="M1201,455.64H684V417.8a1774.87,1774.87,0,0,0,258.49,18.92A1774.84,1774.84,0,0,0,1201,417.8Z" transform="translate(-684.03 -224)"/><rect class="cls-17" y="222.05" width="516.97" height="9.59"/><polygon class="cls-15" points="418.87 93.35 98.1 93.35 0 155.96 516.97 155.96 418.87 93.35"/><polygon class="cls-17" points="424.62 132.02 92.35 132.02 111.81 119.21 405.16 119.21 424.62 132.02"/><polygon class="cls-16" points="111.81 127.28 104.61 132.02 412.36 132.02 405.16 127.28 111.81 127.28"/><rect class="cls-10" x="141.96" width="233.06" height="132.02"/></g></svg>