<svg width="151" height="157" viewBox="0 0 151 157" fill="none" xmlns="http://www.w3.org/2000/svg">
<path d="M92.8392 144.148C91.5828 148.063 87.8079 151.12 85.3652 154.299C84.8393 155.146 83.3784 154.474 83.8401 153.352C85.7743 149.857 88.4682 145.895 91.314 143.202C92.0739 142.734 93.0907 143.365 92.8392 144.148Z" fill="black"/>
<path d="M100.886 120.973C101.786 124.818 99.9802 128.861 97.9174 131.807C97.4966 132.484 96.4798 131.853 96.9006 131.175C97.783 129.376 98.3907 127.64 98.829 125.799C99.1621 124.128 99.2205 122.521 99.5536 120.85C99.5302 120.131 100.693 120.149 100.886 120.973Z" fill="black"/>
<path d="M98.7122 94.974C99.8166 96.5985 100.331 98.7957 100.506 100.783C100.956 102.705 101.026 104.861 101.032 106.743C101.055 107.462 100.062 107.549 100.039 106.831C99.8634 104.844 99.4134 102.921 98.8583 101.168C98.4083 99.2457 97.4091 97.4517 96.9591 95.5292C96.5967 94.6003 98.0751 94.1094 98.7122 94.974Z" fill="black"/>
<path d="M90.3092 85.0632C90.841 86.0976 89.4266 86.8634 88.895 85.8288C88.2581 84.9639 87.5569 83.8244 86.9199 82.9596C85.944 81.8843 84.6524 81.3178 83.9512 80.1783C83.548 79.6933 84.0739 78.8459 84.6875 78.992C87.0777 79.3015 89.0762 82.8894 90.3092 85.0632Z" fill="black"/>
<path d="M71.9661 67.3398C73.6607 68.3917 75.3554 69.4435 76.6702 70.7291C77.4123 71.4245 76.7812 72.4413 75.9339 71.9154C74.3035 71.1382 72.9478 70.2967 71.4226 69.35C69.8975 68.4034 68.1619 67.7956 66.9523 66.3406C66.3799 65.7506 67.1162 64.5643 67.899 64.8154C69.4652 65.3177 70.7157 66.3286 71.9661 67.3398Z" fill="black"/>
<path d="M54.5289 62.1504C52.4135 61.7764 50.2984 61.4026 47.9726 61.3675C45.9213 61.268 43.6598 61.5076 41.86 60.6252C40.9075 60.2688 41.4743 58.9773 42.1291 58.6795C44.1565 58.0599 46.6113 58.6441 48.7265 59.0184C50.9472 59.2227 52.957 59.7662 54.862 60.4791C55.9839 60.9408 55.4812 62.5072 54.5289 62.1504Z" fill="black"/>
<path d="M36.7466 61.6774C34.9295 61.958 32.9424 62.1332 31.2945 62.5189C30.4706 62.7117 29.5415 63.074 28.7818 63.5415C28.0221 64.009 27.8117 64.3479 26.8183 64.4355C26.0996 64.4589 25.6321 63.6992 25.7782 63.0857C26.3856 61.35 28.7526 60.9411 30.4005 60.5554C32.4925 60.2106 34.5433 60.3098 36.7639 60.5143C37.3779 60.6603 37.4654 61.654 36.7466 61.6774Z" fill="black"/>
<path d="M24.4106 72.0965C23.2069 72.5231 22.0674 73.2243 21.4362 74.2411C20.9103 75.0884 20.4487 76.2104 19.3501 76.4675C18.8008 76.5961 18.2924 76.2805 18.1638 75.7312C17.5213 72.9849 21.9972 71.068 23.9843 70.8929C24.703 70.8691 25.0656 71.7984 24.4106 72.0965Z" fill="black"/>
<path d="M21.2377 85.1513C20.5654 86.612 19.958 88.3477 19.6249 90.019C19.3558 91.9647 20.1213 93.3789 20.9514 95.0679C21.3137 95.997 20.5131 96.9086 19.3911 96.447C14.7104 93.7764 17.4394 87.4887 20.0515 84.415C20.5362 84.0116 21.5533 84.6429 21.2377 85.1513Z" fill="black"/>
<path d="M27.163 100.567C28.8634 103.5 31.6158 104.739 34.0116 106.93C34.584 107.52 33.9529 108.537 33.1702 108.286C29.9737 107.006 27.4493 104.266 26.1286 101.098C25.8306 100.444 26.5905 99.9761 27.163 100.567Z" fill="black"/>
<path d="M56.7317 117.981C51.9575 119.243 47.2999 117.291 43.5077 114.702C42.8298 114.281 43.5661 113.095 44.244 113.516C47.9079 115.555 52.0978 116.748 56.3458 116.332C57.4448 116.075 57.8305 117.723 56.7317 117.981Z" fill="black"/>
<path d="M75.034 115.725C71.6155 117.828 67.262 118.413 63.2241 118.489C62.2307 118.576 62.2891 116.969 63.1774 117.051C66.9816 116.595 70.5929 115.316 74.2685 114.311C75.3671 114.053 75.7935 115.257 75.034 115.725Z" fill="black"/>
<path d="M91.0686 111.827C89.596 114.2 85.8795 115.649 83.2382 116.122C82.1396 116.379 81.7539 114.732 82.8525 114.474C84.2257 114.153 85.5347 113.557 86.6742 112.856C87.8137 112.154 88.8889 111.179 90.1979 110.583C90.8524 110.285 91.3842 111.319 91.0686 111.827Z" fill="black"/>
<path d="M112.281 93.5365C111.44 94.8922 110.09 95.9324 109.079 97.1829C107.688 98.6672 106.467 100.257 104.842 101.361C103.977 101.998 103.001 100.923 103.697 100.181C104.982 98.8658 106.204 97.2764 107.32 95.8564C108.331 94.6059 109.383 92.9112 110.966 92.2509C111.831 91.6139 112.807 92.6894 112.281 93.5365Z" fill="black"/>
<path d="M123.337 79.506C122.478 82.0246 120.287 84.4205 118.645 86.6878C118.119 87.5351 116.933 86.7988 117.458 85.9515C118.762 83.4738 119.831 80.6163 121.812 78.5593C122.507 77.8175 123.693 78.5538 123.337 79.506Z" fill="black"/>
<path d="M132.272 63.2199C131.875 64.6165 130.969 65.6976 130.233 66.8841C129.496 68.0701 128.655 69.4261 127.749 70.5071C127.223 71.3545 125.867 70.513 126.393 69.6657C127.13 68.4794 127.971 67.1234 128.538 65.8323C129.274 64.646 129.841 63.3546 130.916 62.3784C131.337 61.7006 132.354 62.3317 132.272 63.2199Z" fill="black"/>
<path d="M140.494 48.8391C141.33 52.4096 141.996 55.8748 142.387 59.4041C142.691 61.9402 143.655 66.0602 142.118 68.1581C141.593 69.0054 140.155 69.0521 139.623 68.0178C138.56 65.9492 139.016 62.9456 138.945 60.7893C138.747 58.0837 138.209 55.1677 137.671 52.2518C134.212 54.7996 130.244 57.0318 126.551 59.1998C125.412 59.901 123.968 58.0661 125.044 57.09C129.029 53.6949 134.054 51.6496 137.637 47.7695C138.437 46.8581 140.068 47.6351 140.494 48.8391Z" fill="black"/>
</svg>
