<svg width="66" height="65" viewBox="0 0 66 65" fill="none" xmlns="http://www.w3.org/2000/svg">
<g clip-path="url(#clip0)">
<path d="M65.0059 32.5005C65.0059 14.5493 50.457 0.000488281 32.5059 0.000488281C14.5547 0.000488281 0.00585938 14.5493 0.00585938 32.5005C0.00585938 50.4517 14.5547 65.0005 32.5059 65.0005C32.6963 65.0005 32.8867 65.0005 33.0771 64.9878V39.6987H26.0947V31.561H33.0771V25.5688C33.0771 18.6245 37.3174 14.8413 43.5127 14.8413C46.4834 14.8413 49.0352 15.0571 49.7715 15.1587V22.4204H45.5059C42.1416 22.4204 41.4814 24.02 41.4814 26.3687V31.5483H49.543L48.4893 39.686H41.4814V63.7437C55.0654 59.8462 65.0059 47.3413 65.0059 32.5005Z" fill="#151516"/>
</g>
<defs>
<clipPath id="clip0">
<rect width="65" height="65" fill="white" transform="translate(0.00585938 0.000488281)"/>
</clipPath>
</defs>
</svg>
