<svg width="65" height="64" viewBox="0 0 65 64" fill="none" xmlns="http://www.w3.org/2000/svg">
<g clip-path="url(#clip0)">
<path d="M32.0059 64.0005C49.6699 64.0005 64.0059 49.6645 64.0059 32.0005C64.0059 14.3365 49.6699 0.000488281 32.0059 0.000488281C14.3419 0.000488281 0.00585938 14.3365 0.00585938 32.0005C0.00585938 49.6645 14.3419 64.0005 32.0059 64.0005ZM43.4272 29.7152H48.0085V25.1365H52.5899V29.7178H57.1312V34.2992H52.5899V38.8805H48.0085V34.2992H43.4272V29.7152ZM22.8832 15.9978C26.9205 15.9978 30.6379 17.4192 33.5952 20.1658L29.2592 24.3738C27.5552 22.7072 25.2219 21.9098 22.8832 21.9098C17.3472 21.9098 12.9205 26.4912 12.9205 31.9872C12.9205 37.4832 17.3339 42.0645 22.8832 42.0645C27.0885 42.0645 31.2565 39.6005 31.9285 35.1872H22.8832V29.6912H37.9685C38.1365 30.5685 38.2139 31.4458 38.2139 32.3605C38.2139 41.4965 32.0832 47.9978 22.8832 47.9978V48.0005C14.0059 48.0005 6.88053 40.8378 6.88053 31.9978C6.88053 23.1578 14.0059 15.9978 22.8832 15.9978Z" fill="#D4393F"/>
</g>
<defs>
<clipPath id="clip0">
<rect width="64" height="64" fill="white" transform="translate(0.00585938 0.000488281)"/>
</clipPath>
</defs>
</svg>
